<?xml version="1.0" encoding="utf-8"?>
<!-- Generator: Adobe Illustrator 24.0.1, SVG Export Plug-In . SVG Version: 6.00 Build 0)  -->
<svg version="1.1" id="Layer_1" xmlns="http://www.w3.org/2000/svg" xmlns:xlink="http://www.w3.org/1999/xlink" x="0px" y="0px"
	 viewBox="0 0 1024 1024" style="enable-background:new 0 0 1024 1024;" xml:space="preserve">
<style type="text/css">
	.st0{fill:#00BCC7;}
	.st1{opacity:0.2;fill:url(#SVGID_1_);}
	.st2{fill:#FFFFFF;}
</style>
<g>
	<path class="st0" d="M982.4,417.9l-94.1-94.1L700.2,135.7l-94.1-94.1c-52-52-136.2-52-188.2,0l-94.1,94.1L135.7,323.8l-94.1,94.1
		c-52,52-52,136.2,0,188.2l94.1,94.1l188.2,188.2l94.1,94.1c52,52,136.2,52,188.2,0l94.1-94.1l188.2-188.2l94.1-94.1
		C1034.4,554.1,1034.4,469.9,982.4,417.9z"/>
	<linearGradient id="SVGID_1_" gradientUnits="userSpaceOnUse" x1="422.462" y1="422.462" x2="959.9001" y2="959.9002">
		<stop  offset="0" style="stop-color:#141414"/>
		<stop  offset="0.144" style="stop-color:#303030;stop-opacity:0.856"/>
		<stop  offset="0.455" style="stop-color:#777777;stop-opacity:0.545"/>
		<stop  offset="0.9061" style="stop-color:#E7E7E7;stop-opacity:9.385455e-02"/>
		<stop  offset="1" style="stop-color:#FFFFFF;stop-opacity:0"/>
	</linearGradient>
	<path class="st1" d="M982.4,417.9l-43.3-43.3c-13,13-30.9,21-50.8,21c-11.7,0-22.7-2.8-32.5-7.8L715.9,527.8l-5.9-5.9l0,0l5.9,5.9
		l-64.6,64.6c1.7,5,2.6,10.4,2.6,15.9c0,28-22.7,50.8-50.8,50.8c-13.8,0-26.4-5.5-35.5-14.5c-9.4-9.2-15.2-22-15.2-36.2
		c0-4.9,0.7-9.7,2-14.2l-124-124c-3.5,0.8-7.2,1.2-11,1.2c-5.4,0-10.5-0.8-15.4-2.4l-61.6,61.6L201.5,671.4c3.9,8.8,6,18.5,6,28.8
		c0,19.8-8,37.8-21,50.8l137.4,137.4l94.1,94.1l9.3,8.4c52.3,43.4,129.9,40.5,178.9-8.4l94.1-94.1l291.3-292.2
		C1034.2,543.8,1031.1,466.7,982.4,417.9z"/>
	<path class="st2" d="M135.7,728c-5.4,0-10.8-2.1-14.9-6.2c-8.1-8.2-8-21.5,0.2-29.6l283.7-279.7c4-3.9,9.3-6.1,14.9-6
		c5.6,0.1,10.9,2.3,14.8,6.3l169,172.7L873.5,316c8.2-8.2,21.4-8.1,29.6,0c8.2,8.2,8.1,21.4,0,29.6L617.9,630.1
		c-4,3.9-9.3,6.1-14.9,6.1c-5.6,0-10.9-2.3-14.8-6.3L419.1,457.1L150.4,722C146.3,726,141,728,135.7,728z"/>
	<circle class="st2" cx="888.3" cy="323.8" r="71.8"/>
	<circle class="st2" cx="603.1" cy="608.3" r="50.8"/>
	<circle class="st2" cx="419.4" cy="420.5" r="50.8"/>
	<circle class="st2" cx="135.7" cy="700.2" r="71.8"/>
</g>
</svg>
